Coordinates
version=1
nRows=6
nColumns=34
inDegrees=yes

Units are S.I. units (second, meters, Newtons, ...)
If the header above contains a line with 'inDegrees', this indicates whether rotational values are in degrees (yes) or radians (no).

endheader
time	pelvis_tilt	pelvis_list	pelvis_rotation	pelvis_tx	pelvis_ty	pelvis_tz	hip_flexion_r	hip_adduction_r	hip_rotation_r	knee_angle_r	ankle_angle_r	subtalar_angle_r	mtp_angle_r	hip_flexion_l	hip_adduction_l	hip_rotation_l	knee_angle_l	ankle_angle_l	subtalar_angle_l	mtp_angle_l	lumbar_extension	lumbar_bending	lumbar_rotation	arm_flex_r	arm_add_r	arm_rot_r	elbow_flex_r	pro_sup_r	arm_flex_l	arm_add_l	arm_rot_l	elbow_flex_l	pro_sup_l
      0.00000000	      7.16449348	     -5.20579601	    -28.62321695	      3.80597635	      0.92908145	      1.45032346	     29.01179234	     12.86909930	     -6.03303453	     35.35065747	     -6.82916126	     -1.33362722	      0.00000000	     20.76709575	     12.89646963	      3.66861603	     11.78928958	    -12.76883746	    -12.02514475	      0.00000000	    -21.95909533	     -5.49443619	     12.31579670	     21.77079716	     32.08237109	     34.36472515	     56.86900337	    115.03642231	     22.10387343	     25.62113785	     40.74272624	     88.52432704	    112.93708962
      0.01666670	      7.08450460	     -5.16516730	    -28.73246007	      3.80604667	      0.92910480	      1.45033814	     28.93181542	     12.85869407	     -6.22824833	     35.07264212	     -6.66232128	     -1.28863182	      0.00000000	     20.84825951	     12.83781933	      3.70509379	     11.74882782	    -12.71917665	    -11.98657279	      0.00000000	    -21.85415114	     -5.49522003	     12.41156753	     21.66209454	     32.08367411	     34.42917002	     56.84670078	    115.01463596	     22.04946285	     25.55009354	     40.81201689	     88.70818925	    112.98292954
      0.03333330	      6.83710774	     -5.33587810	    -28.85508933	      3.80573283	      0.92909568	      1.45013371	     28.77093512	     13.03967360	     -6.48038065	     34.45796628	     -6.38395557	     -0.56072217	      0.00000000	     20.98058947	     12.52798114	      3.57249560	     11.71741766	    -12.60511049	    -11.77669335	      0.00000000	    -21.77786330	     -5.17748789	     12.44706524	     21.33941026	     32.07219660	     34.34315339	     57.04546699	    114.91948508	     21.78728304	     25.28396530	     40.77416071	     89.48972968	    113.17917889
      0.05000000	      6.76827771	     -5.33508275	    -28.88635569	      3.80541480	      0.92928023	      1.44965665	     28.68032493	     13.03506329	     -6.43136182	     34.09077191	     -6.40732389	     -0.41004625	      0.00000000	     21.04452741	     12.48183233	      3.56753464	     11.65415470	    -12.57959139	    -11.73617022	      0.00000000	    -21.70734032	     -5.20535818	     12.36117377	     21.44456346	     31.85859225	     34.16834884	     57.23292382	    114.89709975	     21.75613343	     25.28239523	     40.49243165	     89.68848914	    113.20857455
      0.06666670	      6.58121243	     -5.57873655	    -29.00694892	      3.80556982	      0.92977289	      1.44927960	     28.48618163	     13.46139867	     -5.90429589	     33.46867037	     -6.73832969	     -0.04000738	      0.00000000	     20.90361415	     12.14835501	      3.63811619	     11.33268173	    -12.66531476	    -11.43081806	      0.00000000	    -21.59842885	     -4.85062584	     12.28215872	     21.05265129	     31.65418612	     34.15160185	     57.96951531	    114.87220013	     21.20206882	     25.42470148	     39.93438936	     90.18828154	    113.36699440
      0.08333330	      6.44450360	     -5.73245693	    -29.30696174	      3.80518068	      0.92990974	      1.44874355	     28.27530219	     13.81464750	     -5.52781137	     32.66959257	     -7.11964631	      0.16377632	      0.00000000	     20.84297325	     11.86227322	      3.51756121	     11.06495113	    -12.55453822	    -11.22793339	      0.00000000	    -21.63455151	     -4.58474127	     12.49474555	     21.10902323	     31.31521750	     34.58608984	     58.36540721	    114.85081699	     21.30551472	     25.53973913	     39.98283516	     90.08552252	    113.69346177
